<svg data-name="Layer 1" xmlns="http://www.w3.org/2000/svg" viewBox="0 0 24 24"><title>instagram</title><path d="M16,12a4,4,0,1,0-4,4A4,4,0,0,0,16,12Zm2.16,0A6.16,6.16,0,1,1,12,5.84,6.15,6.15,0,0,1,18.16,12Zm1.68-6.41a1.44,1.44,0,1,1-1.43-1.43A1.43,1.43,0,0,1,19.84,5.59ZM12,2.16c-1.75,0-5.5-.14-7.08.48a3.78,3.78,0,0,0-1.37.91,3.7,3.7,0,0,0-.91,1.37C2,6.5,2.16,10.25,2.16,12s-.14,5.5.48,7.08a3.78,3.78,0,0,0,.91,1.37,3.91,3.91,0,0,0,1.37.91c1.58.62,5.33.48,7.08.48s5.5.14,7.08-.48a3.91,3.91,0,0,0,1.37-.91,3.78,3.78,0,0,0,.91-1.37c.62-1.58.48-5.33.48-7.08s.14-5.5-.48-7.08a3.7,3.7,0,0,0-.91-1.37,3.78,3.78,0,0,0-1.37-.91C17.5,2,13.75,2.16,12,2.16ZM24,12c0,1.66,0,3.3-.08,4.95A7.11,7.11,0,0,1,22,22a7.12,7.12,0,0,1-5,1.94C15.3,24,13.66,24,12,24s-3.3,0-4.95-.08A7.09,7.09,0,0,1,2,22,7.08,7.08,0,0,1,.08,17C0,15.3,0,13.66,0,12S0,8.7.08,7.05A7.08,7.08,0,0,1,2,2a7.09,7.09,0,0,1,5-1.94C8.7,0,10.35,0,12,0S15.3,0,17,.08A7.12,7.12,0,0,1,22,2a7.11,7.11,0,0,1,1.93,5C24,8.7,24,10.34,24,12Z" transform="translate(0 0)"/></svg>
