<svg id="Layer_1" data-name="Layer 1" xmlns="http://www.w3.org/2000/svg" viewBox="0 0 188.24 219.76"><path class="cls-1" d="M106.64,98.85q1.9,2.36,1.9,13.55v16.25q0,10.54-2.11,13.24c-1.42,1.79-4.68,2.79-9.81,3V96.16q8.11.32,10,2.69m-2.46-67.58c1.3.58,2.34,2,3.15,4.15s1.21,6,1.21,11.46q0,15.48-1.47,18.77t-6.82,3.28c-.86,0-2.07,0-3.63.11V30.31q5.63.11,7.56,1M60.27,174.7h42q21.93,0,29-3.12T141.66,160q3.22-8.5,3.23-26.16V117.64q0-17-4.49-25.24T123.31,80.61q11.31-3.23,15.15-9.25t3.84-21.29q0-22.57-5.44-32.74T122.57,3.83Q113.72.5,96.54.5H60.27ZM15.65.5V153.87q0,12.54-.37,16.89a13.24,13.24,0,0,1-2.79,7.36,8,8,0,0,1-6.58,3,50.16,50.16,0,0,1-5.1-.4L17.6,219.26h2.77q13,0,19.42-2.93T50,205.77a42.93,42.93,0,0,0,4.24-17.1q.46-9.46.46-42.56V.5Zm172.41,0H183.2q-12.49,0-18.71,2.32a19,19,0,0,0-9.83,8.34,29,29,0,0,0-4.09,13.5q-.44,7.47-.44,33.62V174.75h37.61V.46"/><path class="cls-2" d="M102.32,175.2H59.77V0H96.54C108,0,116.82,1.13,122.75,3.37s10.89,6.87,14.55,13.72,5.5,17.91,5.5,33c0,10.23-1.32,17.48-3.92,21.56-2.43,3.81-7.08,6.82-13.84,9,7.64,2.44,13,6.32,15.8,11.55,3,5.54,4.55,14.11,4.55,25.48v16.15c0,11.78-1.1,20.64-3.27,26.34s-5.75,9.78-10.58,11.91S117,175.2,102.32,175.2Zm-41.55-1h41.55c14.49,0,24.18-1,28.82-3.08s8-5.83,10.05-11.34,3.2-14.33,3.2-26V117.64c0-11.2-1.49-19.61-4.43-25s-8.56-9.23-16.79-11.55l-1.7-.48,1.7-.48c7.38-2.11,12.39-5.15,14.87-9s3.76-11,3.76-21c0-14.9-1.81-25.84-5.38-32.51s-8.27-11.09-14-13.26S107.88,1,96.54,1H60.77Zm35.35-28.78V95.63l.52,0c5.62.22,9,1.16,10.39,2.87h0c1.35,1.69,2,6.23,2,13.87v16.25c0,7.21-.73,11.64-2.22,13.55s-4.85,3-10.17,3.2Zm1-48.74v47.69c4.65-.25,7.65-1.19,8.91-2.79s2-6.05,2-12.93V112.4c0-9.1-1-12.22-1.79-13.24h0C105.12,97.75,102.05,96.92,97.12,96.68Zm-1-27.12V29.8h.51c3.85.07,6.38.4,7.75,1h0c1.42.62,2.57,2.11,3.42,4.42S109,41.31,109,46.88c0,10.49-.49,16.7-1.51,19s-3.51,3.57-7.28,3.57c-.83,0-2,0-3.6.11Zm1-38.74v37.7c1.35-.06,2.38-.09,3.13-.09,3.39,0,5.47-1,6.37-3S108,57.09,108,46.88c0-5.37-.4-9.17-1.18-11.29s-1.72-3.34-2.88-3.86S100.5,30.91,97.12,30.82ZM20.37,219.76H17.28L0,180.11l.86.1a49.25,49.25,0,0,0,5.05.4,7.42,7.42,0,0,0,6.19-2.81,12.75,12.75,0,0,0,2.68-7.08c.24-2.89.37-8.56.37-16.85V0H55.2V146.11c0,22-.15,36.3-.46,42.59A43.76,43.76,0,0,1,50.45,206c-2.56,5.17-6.07,8.8-10.46,10.79S29.05,219.76,20.37,219.76Zm-2.44-1h2.44c8.54,0,15-1,19.21-2.89s7.52-5.37,10-10.32a42.74,42.74,0,0,0,4.19-16.9c.31-6.28.46-20.59.46-42.54V1H16.15V153.87c0,8.32-.13,14-.37,16.93a13.74,13.74,0,0,1-2.9,7.63,8.5,8.5,0,0,1-7,3.18c-.94,0-2.38-.1-4.3-.31Zm170.31-43.51H149.63V58.32c0-17.36.15-28.68.45-33.65a29.64,29.64,0,0,1,4.15-13.73,19.57,19.57,0,0,1,10.09-8.55C168.49.83,174.84,0,183.2,0h4.86V.46h.18Zm-37.61-1h36.61V1h-4c-8.24,0-14.47.77-18.53,2.29a18.62,18.62,0,0,0-9.59,8.12,29,29,0,0,0-4,13.28c-.29,4.95-.44,16.25-.44,33.59Z"/></svg>
